<svg width="900" viewBox="0 0 720 680" xmlns="http://www.w3.org/2000/svg" style="background:white;font-family:Arial,sans-serif">
<defs>
<marker id="arrow" viewBox="0 0 10 10" refX="8" refY="5" markerWidth="6" markerHeight="6" orient="auto-start-reverse">
<path d="M2 1L8 5L2 9" fill="none" stroke="#666" stroke-width="1.5" stroke-linecap="round" stroke-linejoin="round"/>
</marker>
</defs>
<!-- Cloudflare Pages -->
<rect x="30" y="20" width="300" height="220" rx="14" fill="#e6f1fb" stroke="#378ADD" stroke-width="1"/>
<text x="180" y="46" text-anchor="middle" font-size="13" font-weight="bold" fill="#0C447C">Cloudflare Pages</text>
<text x="180" y="62" text-anchor="middle" font-size="10" fill="#185FA5">wc2026.pages.dev  ·  branches main / staging</text>
<rect x="50" y="76" width="260" height="36" rx="6" fill="#CECBF6" stroke="#534AB7" stroke-width="0.8"/>
<text x="180" y="93" text-anchor="middle" font-size="10" font-weight="bold" fill="#26215C">index.html</text>
<text x="180" y="106" text-anchor="middle" font-size="9" fill="#3C3489">main → prod  ·  staging → recette</text>
<rect x="50" y="128" width="260" height="94" rx="6" fill="#CECBF6" stroke="#534AB7" stroke-width="0.8"/>
<text x="180" y="148" text-anchor="middle" font-size="11" font-weight="bold" fill="#26215C">js/ (11 fichiers)</text>
<text x="180" y="166" text-anchor="middle" font-size="9" fill="#3C3489">config v2 · fallback v3 · predictions v5</text>
<text x="180" y="182" text-anchor="middle" font-size="9" fill="#3C3489">api v10 · ratings v4 · modal v7 · pitch v4</text>
<text x="180" y="198" text-anchor="middle" font-size="9" fill="#3C3489">map v6 · render v10 · rankings v3 · state v6</text>
<!-- Cloudflare Worker -->
<rect x="30" y="268" width="300" height="280" rx="14" fill="#e1f5ee" stroke="#1D9E75" stroke-width="1"/>
<text x="180" y="294" text-anchor="middle" font-size="13" font-weight="bold" fill="#085041">Cloudflare Worker v7</text>
<text x="180" y="310" text-anchor="middle" font-size="10" fill="#0F6E56">wc2026.mguenoun.workers.dev</text>
<rect x="50" y="320" width="260" height="86" rx="6" fill="#9FE1CB" stroke="#1D9E75" stroke-width="0.8"/>
<text x="180" y="338" text-anchor="middle" font-size="10" font-weight="bold" fill="#04342C">Routes /data/* (cache KV)</text>
<text x="180" y="354" text-anchor="middle" font-size="9" fill="#085041">/data/live (ESPN 30s) · /data/summary/:id</text>
<text x="180" y="370" text-anchor="middle" font-size="9" fill="#085041">/data/stats/:id · /data/matches · /data/standings</text>
<text x="180" y="386" text-anchor="middle" font-size="9" fill="#085041">/data/scorers · /data/refresh</text>
<rect x="50" y="418" width="118" height="44" rx="6" fill="#9FE1CB" stroke="#1D9E75" stroke-width="0.8"/>
<text x="109" y="436" text-anchor="middle" font-size="9" font-weight="bold" fill="#04342C">/stats/players</text>
<text x="109" y="452" text-anchor="middle" font-size="9" fill="#04342C">/stats/keepers</text>
<rect x="192" y="418" width="118" height="44" rx="6" fill="#9FE1CB" stroke="#1D9E75" stroke-width="0.8"/>
<text x="251" y="436" text-anchor="middle" font-size="9" font-weight="bold" fill="#04342C">Pipeline KV</text>
<text x="251" y="452" text-anchor="middle" font-size="9" fill="#04342C">step1 · step2 · step3</text>
<rect x="50" y="478" width="260" height="56" rx="6" fill="#9FE1CB" stroke="#1D9E75" stroke-width="0.8"/>
<text x="180" y="498" text-anchor="middle" font-size="10" font-weight="bold" fill="#04342C">Proxy /fd/ + step0</text>
<text x="180" y="516" text-anchor="middle" font-size="9" fill="#085041">football-data.org · refresh KV 30min</text>
<!-- Cloudflare KV -->
<rect x="380" y="268" width="310" height="280" rx="14" fill="#FAEEDA" stroke="#BA7517" stroke-width="1"/>
<text x="535" y="294" text-anchor="middle" font-size="13" font-weight="bold" fill="#412402">Cloudflare KV</text>
<text x="535" y="310" text-anchor="middle" font-size="10" fill="#633806">WC2026_STATS (persistant)</text>
<rect x="400" y="320" width="270" height="212" rx="6" fill="#FAC775" stroke="#BA7517" stroke-width="0.8"/>
<text x="535" y="340" text-anchor="middle" font-size="9" font-weight="bold" fill="#412402">Cache donnees (TTL court)</text>
<text x="535" y="358" text-anchor="middle" font-size="9" fill="#412402">cache:live (30s) · cache:summary:{id} (60s/inf)</text>
<text x="535" y="376" text-anchor="middle" font-size="9" fill="#412402">cache:matches · cache:standings · cache:scorers</text>
<line x1="410" y1="392" x2="660" y2="392" stroke="#BA7517" stroke-width="0.5" stroke-dasharray="3 2"/>
<text x="535" y="412" text-anchor="middle" font-size="9" font-weight="bold" fill="#412402">Pipeline stats (permanent)</text>
<text x="535" y="430" text-anchor="middle" font-size="9" fill="#412402">espn_map · pipeline_queue</text>
<text x="535" y="448" text-anchor="middle" font-size="9" fill="#412402">urls:{eid} · partial:{eid}:N (temp)</text>
<text x="535" y="466" text-anchor="middle" font-size="9" fill="#412402">match:{eid} → stats joueurs v8</text>
<text x="535" y="490" text-anchor="middle" font-size="9" fill="#633806">~17 matchs · lecture &lt;100ms</text>
<!-- Crons -->
<rect x="380" y="20" width="310" height="220" rx="14" fill="#f1f5f9" stroke="#888780" stroke-width="1"/>
<text x="535" y="46" text-anchor="middle" font-size="13" font-weight="bold" fill="#2C2C2A">Cron Triggers (4)</text>
<text x="535" y="62" text-anchor="middle" font-size="10" fill="#5F5E5A">Plan gratuit · 50 req/invocation</text>
<rect x="400" y="76" width="270" height="148" rx="6" fill="#D3D1C7" stroke="#888780" stroke-width="0.8"/>
<text x="535" y="98" text-anchor="middle" font-size="9" font-family="Courier,monospace" fill="#2C2C2A">*/30 * * * *  step0+step1</text>
<text x="535" y="116" text-anchor="middle" font-size="9" fill="#5F5E5A">refresh FD + detection matchs</text>
<text x="535" y="138" text-anchor="middle" font-size="9" font-family="Courier,monospace" fill="#2C2C2A">0 */2 * * *   step2</text>
<text x="535" y="156" text-anchor="middle" font-size="9" font-family="Courier,monospace" fill="#2C2C2A">10 */2 * * *  step3 (g1-4)</text>
<text x="535" y="174" text-anchor="middle" font-size="9" font-family="Courier,monospace" fill="#2C2C2A">20 */2 * * *  step3 (g5-6)</text>
<text x="535" y="200" text-anchor="middle" font-size="9" fill="#5F5E5A">Logs Observability scheduled</text>
<!-- Sources -->
<rect x="30" y="580" width="200" height="80" rx="10" fill="#FAECE7" stroke="#D85A30" stroke-width="1"/>
<text x="130" y="604" text-anchor="middle" font-size="11" font-weight="bold" fill="#4A1B0C">ESPN APIs</text>
<text x="130" y="622" text-anchor="middle" font-size="9" fill="#712B13">site.api.espn.com</text>
<text x="130" y="638" text-anchor="middle" font-size="9" fill="#712B13">sports.core.api.espn.com</text>
<text x="130" y="652" text-anchor="middle" font-size="9" fill="#712B13">Via Worker uniquement</text>
<rect x="248" y="580" width="200" height="80" rx="10" fill="#FAECE7" stroke="#D85A30" stroke-width="1"/>
<text x="348" y="604" text-anchor="middle" font-size="11" font-weight="bold" fill="#4A1B0C">football-data.org</text>
<text x="348" y="622" text-anchor="middle" font-size="9" fill="#712B13">Matchs · Standings · Buteurs</text>
<text x="348" y="638" text-anchor="middle" font-size="9" fill="#712B13">Token FD requis</text>
<text x="348" y="652" text-anchor="middle" font-size="9" fill="#712B13">Via proxy /fd/</text>
<rect x="466" y="580" width="224" height="80" rx="10" fill="#f1f5f9" stroke="#888780" stroke-width="1"/>
<text x="578" y="604" text-anchor="middle" font-size="11" font-weight="bold" fill="#2C2C2A">Admin (navigateur)</text>
<text x="578" y="622" text-anchor="middle" font-size="9" fill="#5F5E5A">POST /stats/init (one-shot)</text>
<text x="578" y="638" text-anchor="middle" font-size="9" fill="#5F5E5A">GET /stats/step1|2|3 (debug)</text>
<text x="578" y="652" text-anchor="middle" font-size="9" fill="#5F5E5A">wrangler kv (reset KV)</text>
<!-- Fleches -->
<line x1="180" y1="240" x2="180" y2="266" stroke="#378ADD" stroke-width="1.5" marker-end="url(#arrow)"/>
<text x="192" y="257" font-size="9" fill="#666">fetch()</text>
<line x1="330" y1="408" x2="378" y2="408" stroke="#1D9E75" stroke-width="1.5" marker-end="url(#arrow)"/>
<text x="332" y="400" font-size="9" fill="#666">KV put/get</text>
<line x1="535" y1="240" x2="535" y2="266" stroke="#888" stroke-width="1.5" marker-end="url(#arrow)"/>
<text x="544" y="257" font-size="9" fill="#666">declenche</text>
<line x1="130" y1="548" x2="130" y2="578" stroke="#aaa" stroke-width="1.2" marker-end="url(#arrow)"/>
<path d="M180 548 L180 564 L310 564 L310 578" fill="none" stroke="#aaa" stroke-width="1.2" marker-end="url(#arrow)"/>
<path d="M578 578 L578 560 L360 560 L360 270" fill="none" stroke="#aaa" stroke-width="1.2" stroke-dasharray="4 3" marker-end="url(#arrow)"/>
<text x="430" y="556" font-size="9" fill="#666">one-shot init / debug</text>
</svg>
