<svg width="900" viewBox="0 0 680 576" xmlns="http://www.w3.org/2000/svg" style="background:white;font-family:Arial,sans-serif">
<defs>
<marker id="arrow" viewBox="0 0 10 10" refX="8" refY="5" markerWidth="6" markerHeight="6" orient="auto-start-reverse">
<path d="M2 1L8 5L2 9" fill="none" stroke="#666" stroke-width="1.5" stroke-linecap="round" stroke-linejoin="round"/>
</marker>
</defs>
<text x="340" y="26" text-anchor="middle" font-size="15" font-weight="bold" fill="#0369a1">Sequence au chargement de la page</text>
<text x="340" y="44" text-anchor="middle" font-size="10" fill="#475569">Executes dans state.js (charge en dernier)</text>
<text x="26" y="90" font-size="11" fill="#888">1</text>
<text x="26" y="142" font-size="11" fill="#888">2</text>
<text x="26" y="210" font-size="11" fill="#888">3</text>
<text x="26" y="316" font-size="11" fill="#888">4</text>
<text x="26" y="382" font-size="11" fill="#888">5</text>
<text x="26" y="476" font-size="11" fill="#888">6</text>
<!-- 1 loadFallback -->
<rect x="48" y="68" width="580" height="44" rx="8" fill="#EEEDFE" stroke="#534AB7" stroke-width="0.8"/>
<text x="68" y="86" font-size="11" font-weight="bold" fill="#26215C">loadFallback()</text>
<text x="68" y="102" font-size="9" fill="#3C3489">fallback.js peuple allMatches (63 matchs statiques, KO inclus)</text>
<line x1="340" y1="112" x2="340" y2="128" stroke="#aaa" stroke-width="1.2" marker-end="url(#arrow)"/>
<!-- 2 renderAll -->
<rect x="48" y="128" width="580" height="44" rx="8" fill="#EEEDFE" stroke="#534AB7" stroke-width="0.8"/>
<text x="68" y="146" font-size="11" font-weight="bold" fill="#26215C">renderAll()</text>
<text x="68" y="162" font-size="9" fill="#3C3489">Affichage immediat calendrier · filtres · bracket KO · noms equipes resolus</text>
<line x1="340" y1="172" x2="340" y2="188" stroke="#aaa" stroke-width="1.2" marker-end="url(#arrow)"/>
<!-- 3 fetchAll -->
<rect x="48" y="188" width="580" height="172" rx="8" fill="#e6f1fb" stroke="#378ADD" stroke-width="0.8"/>
<text x="68" y="208" font-size="11" font-weight="bold" fill="#042C53">fetchAll() — via Worker (mutex, 1 seul appel actif)</text>
<text x="68" y="224" font-size="9" fill="#0C447C">scores + standings + buteurs en parallele, tout via Worker KV</text>
<rect x="66" y="232" width="172" height="100" rx="6" fill="#B5D4F4" stroke="#378ADD" stroke-width="0.6"/>
<text x="152" y="252" text-anchor="middle" font-size="10" font-weight="bold" fill="#042C53">Worker /data/live</text>
<text x="152" y="270" text-anchor="middle" font-size="9" fill="#0C447C">Scores live ESPN</text>
<text x="152" y="288" text-anchor="middle" font-size="9" fill="#0C447C">Cache KV 30s</text>
<text x="152" y="306" text-anchor="middle" font-size="9" fill="#0C447C">J-1 + J (UTC)</text>
<rect x="254" y="232" width="172" height="100" rx="6" fill="#B5D4F4" stroke="#378ADD" stroke-width="0.6"/>
<text x="340" y="252" text-anchor="middle" font-size="10" font-weight="bold" fill="#042C53">/data/matches</text>
<text x="340" y="270" text-anchor="middle" font-size="9" fill="#0C447C">Scores FD</text>
<text x="340" y="288" text-anchor="middle" font-size="9" fill="#0C447C">Standings groupes</text>
<text x="340" y="306" text-anchor="middle" font-size="9" fill="#0C447C">/data/scorers</text>
<rect x="442" y="232" width="172" height="100" rx="6" fill="#B5D4F4" stroke="#378ADD" stroke-width="0.6"/>
<text x="528" y="252" text-anchor="middle" font-size="10" font-weight="bold" fill="#042C53">processMatches()</text>
<text x="528" y="270" text-anchor="middle" font-size="9" fill="#0C447C">Merge ESPN + FD</text>
<text x="528" y="288" text-anchor="middle" font-size="9" fill="#0C447C">Fallback J-1 UTC</text>
<text x="528" y="306" text-anchor="middle" font-size="9" fill="#0C447C">isLive · isFT · score</text>
<rect x="66" y="340" width="560" height="20" rx="4" fill="#fef3c7" stroke="#f59e0b" stroke-width="0.7"/>
<text x="346" y="353" text-anchor="middle" font-size="8.5" font-weight="bold" fill="#78350f">buildPredictions() — Poisson v4 + prior FIFA K=6 pour chaque match NS</text>
<line x1="340" y1="360" x2="340" y2="378" stroke="#aaa" stroke-width="1.2" marker-end="url(#arrow)"/>
<!-- 4 renderAll -->
<rect x="48" y="378" width="580" height="44" rx="8" fill="#EEEDFE" stroke="#534AB7" stroke-width="0.8"/>
<text x="68" y="396" font-size="11" font-weight="bold" fill="#26215C">renderAll()</text>
<text x="68" y="412" font-size="9" fill="#3C3489">Mise a jour scores live · standings · statuts · bracket KO avec equipes resolues · predictions NS</text>
<line x1="340" y1="422" x2="340" y2="434" stroke="#aaa" stroke-width="1.2" marker-end="url(#arrow)"/>
<!-- 5 scheduleRefresh -->
<rect x="48" y="434" width="580" height="56" rx="8" fill="#f1f5f9" stroke="#888780" stroke-width="0.8"/>
<text x="68" y="452" font-size="11" font-weight="bold" fill="#2C2C2A">scheduleRefresh() — setTimeout 30s recursif</text>
<text x="68" y="470" font-size="9" fill="#5F5E5A">Si match live fetchESPNLiveScores() via /data/live · si tick%5==0 fetchAll() · sinon tick%10==0 fetchAll()</text>
<text x="68" y="486" font-size="9" fill="#5F5E5A">hasLive evalue a chaque tick (pas a la planification)</text>
<line x1="340" y1="490" x2="340" y2="506" stroke="#aaa" stroke-width="1.2" marker-end="url(#arrow)"/>
<!-- 6 boucle -->
<rect x="48" y="506" width="580" height="44" rx="8" fill="#f1f5f9" stroke="#888780" stroke-width="0.8"/>
<text x="68" y="524" font-size="11" font-weight="bold" fill="#2C2C2A">Boucle infinie 30s</text>
<text x="68" y="540" font-size="9" fill="#5F5E5A">1 appel /data/live si live · fetchAll toutes les 2.5min ou 5min sinon</text>
</svg>